HIERARCHY
ROOT Hips
{
  OFFSET 82.4667 89.9619 26.1077
  CHANNELS 6 Xposition Yposition Zposition Zrotation Xrotation Yrotation
  JOINT RightUpLeg
  {
    OFFSET -9.27038 -1.54558 0.0453971
    CHANNELS 3 Zrotation Xrotation Yrotation
    JOINT RightLeg
    {
      OFFSET 0.0218216 -41.8568 0.0565267
      CHANNELS 3 Zrotation Xrotation Yrotation
      JOINT RightFoot
      {
        OFFSET -2.61527 -40.3658 4.3055
        CHANNELS 3 Zrotation Xrotation Yrotation
        End Site
        {
          OFFSET 0 -7.69 17.5
        }
      }
    }
  }
  JOINT LeftUpLeg
  {
    OFFSET 9.31104 -1.67858 -0.0958947
    CHANNELS 3 Zrotation Xrotation Yrotation
    JOINT LeftLeg
    {
      OFFSET 0.0744558 -41.8745 -0.00265972
      CHANNELS 3 Zrotation Xrotation Yrotation
      JOINT LeftFoot
      {
        OFFSET 0.764134 -42.2473 -6.08411
        CHANNELS 3 Zrotation Xrotation Yrotation
        End Site
        {
          OFFSET 0 -7.69 17.5
        }
      }
    }
  }
  JOINT Spine
  {
    OFFSET 0.0335201 14.2986 0.0503015
    CHANNELS 3 Zrotation Xrotation Yrotation
    JOINT Spine1
    {
      OFFSET 0.00718126 9.71675 0.0166211
      CHANNELS 3 Zrotation Xrotation Yrotation
      JOINT Spine2
      {
        OFFSET -0.00221265 10.1185 -0.0149284
        CHANNELS 3 Zrotation Xrotation Yrotation
        JOINT Spine3
        {
          OFFSET 0.0119342 9.71861 0.0204359
          CHANNELS 3 Zrotation Xrotation Yrotation
          JOINT Neck
          {
            OFFSET -0.0577677 10.3734 -0.0134675
            CHANNELS 3 Zrotation Xrotation Yrotation
            JOINT Head
            {
              OFFSET -0.038427 9.50555 0.0670793
              CHANNELS 3 Zrotation Xrotation Yrotation
              End Site
              {
                OFFSET 0 15.95 0
              }
            }
          }
          JOINT RightShoulder
          {
            OFFSET -3.18893 6.93477 0.0225512
            CHANNELS 3 Zrotation Xrotation Yrotation
            JOINT RightArm
            {
              OFFSET -12.7801 0.0157588 0.021745
              CHANNELS 3 Zrotation Xrotation Yrotation
              JOINT RightForeArm
              {
                OFFSET -26.4845 -0.0288118 0.0304815
                CHANNELS 3 Zrotation Xrotation Yrotation
                JOINT RightHand
                {
                  OFFSET -26.0014 -0.0133622 -0.0275046
                  CHANNELS 3 Zrotation Xrotation Yrotation
                  JOINT RightHandThumb1
                  {
                    OFFSET -2.48905 0.190105 3.12053
                    CHANNELS 3 Zrotation Xrotation Yrotation
                    JOINT RightHandThumb2
                    {
                      OFFSET -3.68274 0 0
                      CHANNELS 3 Zrotation Xrotation Yrotation
                      JOINT RightHandThumb3
                      {
                        OFFSET -2.55832 0 0
                        CHANNELS 3 Zrotation Xrotation Yrotation
                        End Site
                        {
                          OFFSET -2.194 0 0
                        }
                      }
                    }
                  }
                  JOINT RightInHandIndex
                  {
                    OFFSET -3.22368 0.508421 1.97842
                    CHANNELS 3 Zrotation Xrotation Yrotation
                    JOINT RightHandIndex1
                    {
                      OFFSET -5.21684 -0.091368 0.999158
                      CHANNELS 3 Zrotation Xrotation Yrotation
                      JOINT RightHandIndex2
                      {
                        OFFSET -3.61937 0 0
                        CHANNELS 3 Zrotation Xrotation Yrotation
                        JOINT RightHandIndex3
                        {
                          OFFSET -2.0521 0 0
                          CHANNELS 3 Zrotation Xrotation Yrotation
                          End Site
                          {
                            OFFSET -1.805 0 0
                          }
                        }
                      }
                    }
                  }
                  JOINT RightInHandMiddle
                  {
                    OFFSET -3.38211 0.517263 0.756737
                    CHANNELS 3 Zrotation Xrotation Yrotation
                    JOINT RightHandMiddle1
                    {
                      OFFSET -5.17411 -0.084 0.313895
                      CHANNELS 3 Zrotation Xrotation Yrotation
                      JOINT RightHandMiddle2
                      {
                        OFFSET -3.94947 0 0
                        CHANNELS 3 Zrotation Xrotation Yrotation
                        JOINT RightHandMiddle3
                        {
                          OFFSET -2.47579 0 0
                          CHANNELS 3 Zrotation Xrotation Yrotation
                          End Site
                          {
                            OFFSET -1.975 0 0
                          }
                        }
                      }
                    }
                  }
                  JOINT RightInHandRing
                  {
                    OFFSET -3.36516 0.537895 -0.128947
                    CHANNELS 3 Zrotation Xrotation Yrotation
                    JOINT RightHandRing1
                    {
                      OFFSET -4.63474 -0.022105 -0.478947
                      CHANNELS 3 Zrotation Xrotation Yrotation
                      JOINT RightHandRing2
                      {
                        OFFSET -3.44238 0 0
                        CHANNELS 3 Zrotation Xrotation Yrotation
                        JOINT RightHandRing3
                        {
                          OFFSET -2.3881 0 0
                          CHANNELS 3 Zrotation Xrotation Yrotation
                          End Site
                          {
                            OFFSET -1.857 0 0
                          }
                        }
                      }
                    }
                  }
                  JOINT RightInHandPinky
                  {
                    OFFSET -3.16105 0.469368 -1.20179
                    CHANNELS 3 Zrotation Xrotation Yrotation
                    JOINT RightHandPinky1
                    {
                      OFFSET -4.14105 -0.022105 -1.09053
                      CHANNELS 3 Zrotation Xrotation Yrotation
                      JOINT RightHandPinky2
                      {
                        OFFSET -2.75653 0 0
                        CHANNELS 3 Zrotation Xrotation Yrotation
                        JOINT RightHandPinky3
                        {
                          OFFSET -1.74189 0 0
                          CHANNELS 3 Zrotation Xrotation Yrotation
                          End Site
                          {
                            OFFSET -1.645 0 0
                          }
                        }
                      }
                    }
                  }
                }
              }
            }
          }
          JOINT LeftShoulder
          {
            OFFSET 3.21841 6.91393 0.016794
            CHANNELS 3 Zrotation Xrotation Yrotation
            JOINT LeftArm
            {
              OFFSET 12.7804 -0.0245419 -0.0185485
              CHANNELS 3 Zrotation Xrotation Yrotation
              JOINT LeftForeArm
              {
                OFFSET 26.4681 -0.075863 -0.0141108
                CHANNELS 3 Zrotation Xrotation Yrotation
                JOINT LeftHand
                {
                  OFFSET 25.9089 -0.067714 0.0160937
                  CHANNELS 3 Zrotation Xrotation Yrotation
                  JOINT LeftHandThumb1
                  {
                    OFFSET 2.48905 0.190105 3.12053
                    CHANNELS 3 Zrotation Xrotation Yrotation
                    JOINT LeftHandThumb2
                    {
                      OFFSET 3.68274 0 0
                      CHANNELS 3 Zrotation Xrotation Yrotation
                      JOINT LeftHandThumb3
                      {
                        OFFSET 2.55832 0 0
                        CHANNELS 3 Zrotation Xrotation Yrotation
                        End Site
                        {
                          OFFSET 2.194 0 0
                        }
                      }
                    }
                  }
                  JOINT LeftInHandIndex
                  {
                    OFFSET 3.22368 0.508421 1.97842
                    CHANNELS 3 Zrotation Xrotation Yrotation
                    JOINT LeftHandIndex1
                    {
                      OFFSET 5.21684 -0.091368 0.999158
                      CHANNELS 3 Zrotation Xrotation Yrotation
                      JOINT LeftHandIndex2
                      {
                        OFFSET 3.61937 0 0
                        CHANNELS 3 Zrotation Xrotation Yrotation
                        JOINT LeftHandIndex3
                        {
                          OFFSET 2.0521 0 0
                          CHANNELS 3 Zrotation Xrotation Yrotation
                          End Site
                          {
                            OFFSET 1.805 0 0
                          }
                        }
                      }
                    }
                  }
                  JOINT LeftInHandMiddle
                  {
                    OFFSET 3.38211 0.517263 0.756737
                    CHANNELS 3 Zrotation Xrotation Yrotation
                    JOINT LeftHandMiddle1
                    {
                      OFFSET 5.17411 -0.084 0.313895
                      CHANNELS 3 Zrotation Xrotation Yrotation
                      JOINT LeftHandMiddle2
                      {
                        OFFSET 3.94947 0 0
                        CHANNELS 3 Zrotation Xrotation Yrotation
                        JOINT LeftHandMiddle3
                        {
                          OFFSET 2.47579 0 0
                          CHANNELS 3 Zrotation Xrotation Yrotation
                          End Site
                          {
                            OFFSET 1.975 0 0
                          }
                        }
                      }
                    }
                  }
                  JOINT LeftInHandRing
                  {
                    OFFSET 3.36516 0.537895 -0.128947
                    CHANNELS 3 Zrotation Xrotation Yrotation
                    JOINT LeftHandRing1
                    {
                      OFFSET 4.63474 -0.022105 -0.478947
                      CHANNELS 3 Zrotation Xrotation Yrotation
                      JOINT LeftHandRing2
                      {
                        OFFSET 3.44238 0 0
                        CHANNELS 3 Zrotation Xrotation Yrotation
                        JOINT LeftHandRing3
                        {
                          OFFSET 2.3881 0 0
                          CHANNELS 3 Zrotation Xrotation Yrotation
                          End Site
                          {
                            OFFSET 1.857 0 0
                          }
                        }
                      }
                    }
                  }
                  JOINT LeftInHandPinky
                  {
                    OFFSET 3.16105 0.469368 -1.20179
                    CHANNELS 3 Zrotation Xrotation Yrotation
                    JOINT LeftHandPinky1
                    {
                      OFFSET 4.14105 -0.022105 -1.09053
                      CHANNELS 3 Zrotation Xrotation Yrotation
                      JOINT LeftHandPinky2
                      {
                        OFFSET 2.75653 0 0
                        CHANNELS 3 Zrotation Xrotation Yrotation
                        JOINT LeftHandPinky3
                        {
                          OFFSET 1.74189 0 0
                          CHANNELS 3 Zrotation Xrotation Yrotation
                          End Site
                          {
                            OFFSET 1.645 0 0
                          }
                        }
                      }
                    }
                  }
                }
              }
            }
          }
        }
      }
    }
  }
}
MOTION
Frames:	4
Frame Time:	0.00833333
109.983 89.1076 8.47561 15.9605 -21.5278 171.45 41.2493 -32.6417 35.7458 -2.27766 17.7304 18.655 -2.0584 9.50745 12.9039 35.3068 -5.46252 39.5995 9.54041 12.6516 -18.4737 -27.5328 -7.65357 53.635 -4.35881 4.20722 -17.0978 -1.20194 0.730809 -4.42375 -1.95587 1.0752 -7.18973 -0.518494 0.439558 2.33532 -1.22746 0.188223 16.8817 -12.0255 10.4411 36.6859 3.46169 -14.2835 5.96192 36.2937 -39.0719 8.85576 70.6839 -12.1122 105.575 -21.2244 6.45756 5.87399 28.184 10.7294 19.1592 -5.60818e-16 -3.18055e-15 -10 -1.13713e-14 -9.54166e-15 -10 -2.64834e-31 3.18055e-15 4.77083e-15 19.9818 0.871897 2.3964 24 -6.36111e-15 3.18055e-15 20 -4.77083e-15 -0 -2.64834e-31 3.18055e-15 4.77083e-15 20 1.27222e-14 -4.77083e-15 24 -3.18055e-15 3.18055e-15 20 -3.18055e-15 -0 -2.64834e-31 3.18055e-15 4.77083e-15 19.9748 -1.02565 -2.81938 24 1.27222e-14 6.36111e-15 20 -2.38542e-15 3.18055e-15 -2.64834e-31 3.18055e-15 4.77083e-15 19.7815 -3.00948 -8.30515 24 -1.59028e-15 -6.36111e-15 20 7.15625e-15 -9.54166e-15 1.59358 -22.0905 -14.9073 -7.00668 39.8728 -122.689 25.5532 -12.0478 -18.722 32.2734 8.72496 27.0632 -28.184 10.7294 -19.1592 -4.28361e-15 -3.18055e-15 10 -8.70251e-15 1.27222e-14 10 -3.18055e-15 -1.59028e-15 -6.36111e-15 -19.9818 0.871897 -2.3964 -24 -9.54166e-15 1.27222e-14 -20 -6.36111e-15 9.54166e-15 -3.18055e-15 -1.59028e-15 -6.36111e-15 -20 -3.18055e-15 1.43125e-14 -24 -6.36111e-15 1.66979e-14 -20 -3.18055e-15 1.11319e-14 -3.18055e-15 -1.59028e-15 -6.36111e-15 -19.9748 -1.02565 2.81938 -24 0 1.27222e-14 -20 -6.36111e-15 7.55382e-15 -3.18055e-15 -1.59028e-15 -6.36111e-15 -19.7815 -3.00948 8.30515 -24 3.18055e-15 8.74653e-15 -20 6.36111e-15 4.77083e-15 
109.97 89.1084 8.49164 15.9935 -21.5043 171.484 41.2048 -32.6746 35.6634 -2.25682 17.7642 18.6157 -1.98297 9.4499 12.9667 35.3389 -5.50535 39.5823 9.61426 12.7151 -18.5936 -27.4316 -7.57046 53.6132 -4.34385 4.23246 -17.0623 -1.20094 0.739074 -4.41519 -1.95021 1.08974 -7.17722 -0.518886 0.443281 2.33558 -1.22009 0.196108 16.8914 -12.0205 10.5013 36.6973 3.42668 -14.2924 5.97382 36.6526 -38.8545 8.96866 70.3488 -12.0947 105.716 -21.1405 6.38885 5.81948 28.184 10.7294 19.1592 -1.68245e-15 -9.54166e-15 -10 -1.12164e-15 -6.36111e-15 -10 -5.29669e-31 3.18055e-15 9.54166e-15 19.9818 0.871897 2.3964 24 -6.36111e-15 -0 20 -4.77083e-15 -6.36111e-15 -5.29669e-31 3.18055e-15 9.54166e-15 20 3.18055e-15 4.77083e-15 24 0 -3.18055e-15 20 -2.38542e-15 -6.36111e-15 -5.29669e-31 3.18055e-15 9.54166e-15 19.9748 -1.02565 -2.81938 24 6.36111e-15 9.54166e-15 20 -6.36111e-15 6.36111e-15 -5.29669e-31 3.18055e-15 9.54166e-15 19.7815 -3.00948 -8.30515 24 -6.36111e-15 -9.54166e-15 20 -7.95139e-16 3.18055e-15 1.63589 -21.8371 -14.8865 -7.00451 39.7109 -122.673 25.572 -12.0617 -18.7844 32.5895 8.55868 26.8498 -28.184 10.7294 -19.1592 6.45924e-15 0 10 5.89842e-15 3.18055e-15 10 6.36111e-15 -4.77083e-15 3.18055e-15 -19.9818 0.871897 -2.3964 -24 -6.36111e-15 7.95139e-16 -20 3.18055e-15 2.38542e-15 6.36111e-15 -4.77083e-15 3.18055e-15 -20 3.18055e-15 7.95139e-15 -24 9.54166e-15 6.36111e-15 -20 0 -1.19271e-15 6.36111e-15 -4.77083e-15 3.18055e-15 -19.9748 -1.02565 2.81938 -24 3.18055e-15 8.74653e-15 -20 -3.18055e-15 5.56597e-15 6.36111e-15 -4.77083e-15 3.18055e-15 -19.7815 -3.00948 8.30515 -24 0 -7.95139e-16 -20 3.18055e-15 2.38542e-15 
109.954 89.1093 8.50806 16.0233 -21.4895 171.513 41.1753 -32.7128 35.5976 -2.22292 17.798 18.5804 -1.91295 9.38891 13.0197 35.3663 -5.55194 39.5606 9.69087 12.771 -18.697 -27.3301 -7.50076 53.5814 -4.32584 4.24933 -17.0261 -1.20006 0.745452 -4.40614 -1.94296 1.10126 -7.16385 -0.517876 0.447282 2.33583 -1.21312 0.204161 16.9108 -12.0191 10.5683 36.7099 3.39484 -14.286 5.95275 36.7836 -38.8069 9.00706 70.2007 -12.0679 105.69 -21.0637 6.32525 5.75393 28.184 10.7294 19.1592 0 0 -10 0 0 -10 -1.59028e-15 -3.18055e-15 -3.18055e-15 19.9818 0.871897 2.3964 24 3.18055e-15 -0 20 3.18055e-15 -9.54166e-15 -1.59028e-15 -3.18055e-15 -3.18055e-15 20 -9.54166e-15 -0 24 1.59028e-15 -0 20 3.97569e-15 -0 -1.59028e-15 -3.18055e-15 -3.18055e-15 19.9748 -1.02565 -2.81938 24 1.59028e-15 -6.36111e-15 20 7.95139e-15 3.18055e-15 -1.59028e-15 -3.18055e-15 -3.18055e-15 19.7815 -3.00948 -8.30515 24 4.77083e-15 9.54166e-15 20 -7.95139e-16 -1.27222e-14 1.61935 -21.7505 -14.9242 -7.03552 39.7232 -122.582 25.5779 -12.1081 -18.8361 32.7017 8.49042 26.7175 -28.184 10.7294 -19.1592 -3.22962e-15 0 10 3.22962e-15 0 10 -9.54166e-15 3.18055e-15 9.54166e-15 -19.9818 0.871897 -2.3964 -24 -3.18055e-15 3.97569e-15 -20 -9.54166e-15 3.97569e-15 -9.54166e-15 3.18055e-15 9.54166e-15 -20 -6.36111e-15 4.77083e-15 -24 -9.54166e-15 5.56597e-15 -20 -9.54166e-15 5.96354e-15 -9.54166e-15 3.18055e-15 9.54166e-15 -19.9748 -1.02565 2.81938 -24 0 8.74653e-15 -20 -3.18055e-15 1.19271e-15 -9.54166e-15 3.18055e-15 9.54166e-15 -19.7815 -3.00948 8.30515 -24 -3.18055e-15 5.56597e-15 -20 0 5.56597e-15 
109.932 89.1102 8.52465 16.0626 -21.4718 171.55 41.1359 -32.7416 35.5077 -2.20679 17.8314 18.5636 -1.82907 9.31061 13.0635 35.3929 -5.59543 39.5218 9.7679 12.8161 -18.7868 -27.2512 -7.4649 53.538 -4.30475 4.26784 -16.9873 -1.19498 0.752527 -4.39643 -1.93444 1.11407 -7.14949 -0.516288 0.45137 2.33608 -1.2046 0.212959 16.9184 -12.0121 10.633 36.7245 3.36924 -14.3002 5.95675 36.8715 -38.7558 8.98726 70.0694 -12.0465 105.671 -21.08 6.35751 5.70589 28.184 10.7294 19.1592 5.89842e-15 -3.18055e-15 -10 9.12804e-15 -3.18055e-15 -10 3.18055e-15 6.36111e-15 7.15625e-15 19.9818 0.871897 2.3964 24 0 9.54166e-15 20 6.36111e-15 1.90833e-14 3.18055e-15 6.36111e-15 7.15625e-15 20 1.27222e-14 9.54166e-15 24 3.18055e-15 1.27222e-14 20 3.18055e-15 1.59028e-14 3.18055e-15 6.36111e-15 7.15625e-15 19.9748 -1.02565 -2.81938 24 1.59028e-15 1.27222e-14 20 7.95139e-16 1.90833e-14 3.18055e-15 6.36111e-15 7.15625e-15 19.7815 -3.00948 -8.30515 24 9.54166e-15 6.36111e-15 20 -1.59028e-15 2.54444e-14 1.60733 -21.6684 -14.9772 -7.07663 39.7433 -122.474 25.5723 -12.168 -18.888 32.8159 8.41545 26.5997 -28.184 10.7294 -19.1592 3.79044e-15 -3.18055e-15 10 1.68245e-15 -9.54166e-15 10 6.36111e-15 0 -0 -19.9818 0.871897 -2.3964 -24 3.18055e-15 -2.94201e-14 -20 0 -1.11319e-14 6.36111e-15 0 -0 -20 3.18055e-15 -2.8625e-14 -24 6.36111e-15 -2.22639e-14 -20 6.36111e-15 -9.93923e-15 6.36111e-15 0 -0 -19.9748 -1.02565 2.81938 -24 9.54166e-15 -3.10104e-14 -20 9.54166e-15 -1.23246e-14 6.36111e-15 0 -0 -19.7815 -3.00948 8.30515 -24 6.36111e-15 -3.89618e-14 -20 3.18055e-15 -1.35174e-14 
